<svg width="128" height="128" viewBox="0 0 128 128" fill="none" xmlns="http://www.w3.org/2000/svg">
<rect width="128" height="128" rx="30" fill="#1A1A1A"/>
<g filter="url(#filter0_i_3_2)">
<path d="M62.3184 62.0996H65.3535C66.2012 62.0996 66.8164 61.8672 67.1992 61.4023C67.6094 60.9375 67.8691 60.377 67.9785 59.7207C68.1152 59.0645 68.1562 58.3672 68.1016 57.6289C68.0742 56.8906 68.0469 56.248 68.0195 55.7012H69.5371V73.2559H68.0195V66.2832C68.0195 65.5176 67.7734 64.875 67.2812 64.3555C66.7891 63.8086 66.1465 63.5352 65.3535 63.5352H62.3184L62.1543 87.0371C62.1543 87.9941 62.2637 88.6914 62.4824 89.1289C62.7012 89.5391 63.002 89.8125 63.3848 89.9492C63.7949 90.0586 64.2871 90.0996 64.8613 90.0723C65.4355 90.0176 66.0918 89.9902 66.8301 89.9902V91.5078H53.418V89.9902H55.0996C55.5098 89.9902 55.8926 89.9082 56.248 89.7441C56.6035 89.5527 56.9043 89.3203 57.1504 89.0469C57.4238 88.7461 57.6289 88.418 57.7656 88.0625C57.9297 87.6797 58.0117 87.2832 58.0117 86.873L58.3809 38.7617C58.3809 38.3516 58.2578 37.9688 58.0117 37.6133C57.7656 37.2305 57.4512 36.9023 57.0684 36.6289C56.7129 36.3555 56.3164 36.1367 55.8789 35.9727C55.4414 35.8086 55.0312 35.7266 54.6484 35.7266C54.3477 35.7266 54.0742 35.7402 53.8281 35.7676C53.582 35.7949 53.3086 35.8359 53.0078 35.8906V34.373L74.5 32.8555L74.582 48.0723H73.1465L73.0645 39.0898C73.0645 38.5156 72.9961 37.9688 72.8594 37.4492C72.75 36.9023 72.5449 36.4375 72.2441 36.0547C71.9707 35.6445 71.6016 35.3164 71.1367 35.0703C70.6719 34.8242 70.1113 34.7012 69.4551 34.7012C68.3066 34.7012 67.1582 34.7695 66.0098 34.9062C64.8613 35.0156 63.7129 35.125 62.5645 35.2344L62.3184 62.0996Z" fill="#F5F5F5"/>
</g>
<defs>
<filter id="filter0_i_3_2" x="53.0078" y="32.8555" width="21.5742" height="60.6523" filterUnits="userSpaceOnUse" color-interpolation-filters="sRGB">
<feFlood flood-opacity="0" result="BackgroundImageFix"/>
<feBlend mode="normal" in="SourceGraphic" in2="BackgroundImageFix" result="shape"/>
<feColorMatrix in="SourceAlpha" type="matrix" values="0 0 0 0 0 0 0 0 0 0 0 0 0 0 0 0 0 0 127 0" result="hardAlpha"/>
<feOffset dy="3"/>
<feGaussianBlur stdDeviation="1"/>
<feComposite in2="hardAlpha" operator="arithmetic" k2="-1" k3="1"/>
<feColorMatrix type="matrix" values="0 0 0 0 0 0 0 0 0 0 0 0 0 0 0 0 0 0 0.25 0"/>
<feBlend mode="normal" in2="shape" result="effect1_innerShadow_3_2"/>
</filter>
</defs>
</svg>
